<?xml version="1.0" encoding="utf-8"?>
<!-- Generator: Adobe Illustrator 21.0.2, SVG Export Plug-In . SVG Version: 6.00 Build 0)  -->
<svg version="1.1" id="Layer_1" opacity="0.5" xmlns="http://www.w3.org/2000/svg" xmlns:xlink="http://www.w3.org/1999/xlink"
	 x="0px" y="0px" viewBox="0 0 18 18" style="enable-background:new 0 0 18 18;" xml:space="preserve">
<g>
	<path d="M2.9,8.7H1.4v0.6h1.4v0.5H1.4v0.7h1.6v0.5H0.8V8.2h2.1V8.7z"/>
	<path d="M3.4,8.2H4l1.1,2v-2h0.6v2.9H5.1L3.9,9v2H3.4V8.2z"/>
	<path d="M8.4,8.2v0.5H7.5v2.4H6.9V8.7H6V8.2H8.4z"/>
	<path d="M10.8,8.7H9.3v0.6h1.4v0.5H9.3v0.7h1.6v0.5H8.7V8.2h2.1V8.7z"/>
	<path d="M13.2,8.3c0.1,0,0.2,0.1,0.3,0.2c0.1,0.1,0.1,0.2,0.1,0.2c0,0.1,0.1,0.2,0.1,0.3c0,0.1,0,0.3-0.1,0.4s-0.2,0.2-0.3,0.3
		c0.1,0.1,0.2,0.1,0.3,0.2c0.1,0.1,0.1,0.2,0.1,0.4v0.2c0,0.1,0,0.2,0,0.3c0,0.1,0.1,0.1,0.1,0.2v0.1H13c0-0.1,0-0.1,0-0.2
		c0-0.1,0-0.2,0-0.2l0-0.3c0-0.2,0-0.3-0.1-0.4c-0.1-0.1-0.2-0.1-0.3-0.1H12v1.1h-0.6V8.2h1.4C12.9,8.2,13.1,8.2,13.2,8.3z M12,8.7
		v0.8h0.6c0.1,0,0.2,0,0.3,0c0.1-0.1,0.2-0.2,0.2-0.3c0-0.2-0.1-0.3-0.2-0.4c-0.1,0-0.2-0.1-0.3-0.1H12z"/>
</g>
<path d="M17,8.5v4.8c0,0.7-0.6,1.3-1.3,1.3h-3.1v0.8c-0.6-0.5-1.2-0.9-1.8-1.4c0.6-0.5,1.2-0.9,1.8-1.4v0.7h3.1c0,0,0.1,0,0.1-0.1
	V8.5H17z"/>
</svg>
