<?xml version="1.0" encoding="utf-8"?>
<svg version="1.1" xmlns="http://www.w3.org/2000/svg" xmlns:xlink="http://www.w3.org/1999/xlink" height="100" width="auto"  viewBox="0 0 24 24" xml:space="preserve">
	<g id="ic_ig">
		<path d="M16.4,1H7.6C3.9,1,1,3.9,1,7.6v8.9C1,20.1,3.9,23,7.6,23h8.9c3.6,0,6.6-2.9,6.6-6.6V7.6C23,3.9,20.1,1,16.4,1z M20.8,16.4c0,2.4-1.9,4.3-4.3,4.3H7.6c-2.4,0-4.3-1.9-4.3-4.3V7.6c0-2.4,1.9-4.3,4.3-4.3h8.9c2.4,0,4.3,1.9,4.3,4.3V16.4 L20.8,16.4z"/>
		<path d="M12,6.3c-3.1,0-5.7,2.6-5.7,5.7s2.6,5.7,5.7,5.7s5.7-2.6,5.7-5.7S15.1,6.3,12,6.3z M12,15.5 c-1.9,0-3.5-1.6-3.5-3.5s1.6-3.5,3.5-3.5c1.9,0,3.5,1.6,3.5,3.5C15.5,13.9,13.9,15.5,12,15.5z"/>
		<circle cx="17.7" cy="6.4" r="1.4"/>
	</g>
	<path id="ic_yt" d="M18.4,4.2H5.6C3,4.2,1,6.3,1,8.8v6.4c0,2.5,2,4.6,4.6,4.6h12.9c2.5,0,4.6-2,4.6-4.6V8.8
		C23,6.3,21,4.2,18.4,4.2z M15.3,12.3l-6,2.9C9.2,15.3,9,15.1,9,15V9c0-0.2,0.2-0.3,0.4-0.2l6,3C15.5,12,15.5,12.2,15.3,12.3z"/>
	<path id="ic_tw" d="M22.7,5c-0.5,0.2-1,0.4-1.5,0.5c0.6-0.5,1-1.2,1.2-2l0,0c0.1-0.2-0.2-0.4-0.4-0.3l0,0
		c-0.7,0.4-1.5,0.8-2.3,1c0,0-0.1,0-0.1,0c-0.1,0-0.3-0.1-0.4-0.2c-0.9-0.8-2-1.2-3.1-1.2c-0.5,0-1,0.1-1.5,0.2
		c-1.5,0.5-2.7,1.7-3.1,3.3c-0.1,0.6-0.2,1.2-0.1,1.7c0,0.1,0,0.1,0,0.1c0,0-0.1,0.1-0.1,0.1c0,0,0,0,0,0C7.7,8,4.7,6.4,2.6,3.8l0,0
		c-0.1-0.1-0.3-0.1-0.4,0l0,0C1.7,4.5,1.5,5.3,1.5,6.2c0,1.3,0.5,2.5,1.4,3.4C2.5,9.5,2.2,9.3,1.8,9.1l0,0c-0.2-0.1-0.4,0-0.4,0.2
		l0,0c0,1.9,1.1,3.6,2.8,4.4c0,0-0.1,0-0.1,0c-0.3,0-0.5,0-0.8-0.1l0,0c-0.2,0-0.3,0.1-0.3,0.3l0,0c0.5,1.7,2,2.9,3.8,3.2
		c-1.5,1-3.1,1.5-4.9,1.5l-0.5,0c-0.2,0-0.3,0.1-0.4,0.3c0,0.2,0,0.3,0.2,0.4c2,1.2,4.2,1.8,6.5,1.8c2,0,3.9-0.4,5.6-1.2
		c1.6-0.7,2.9-1.8,4.1-3.1c1.1-1.2,1.9-2.6,2.5-4.2c0.6-1.5,0.9-3.1,0.9-4.6V8c0-0.2,0.1-0.5,0.3-0.6c0.7-0.6,1.4-1.3,1.9-2.1l0,0
		C23.1,5.1,22.9,4.9,22.7,5L22.7,5z"/>
	<path id="ic_fb" d="M20,1H4C2.3,1,1,2.3,1,4V20c0,1.6,1.3,3,3,3h7.9l0-7.9h-2c-0.3,0-0.5-0.2-0.5-0.5l0-2.5
		c0-0.3,0.2-0.5,0.5-0.5h2V9.2c0-2.8,1.7-4.4,4.3-4.4h2.1c0.3,0,0.5,0.2,0.5,0.5v2.1c0,0.3-0.2,0.5-0.5,0.5l-1.3,0
		c-1.4,0-1.6,0.7-1.6,1.6v2.1h3c0.3,0,0.5,0.3,0.5,0.5l-0.3,2.5c0,0.2-0.2,0.4-0.5,0.4h-2.7l0,7.9H20c1.6,0,3-1.3,3-3V4
		C23,2.3,21.7,1,20,1z"/>
	<g id="ic_address" >
		<path d="M12,18.27a1.55,1.55,0,0,0,1.25-.63c1.87-2.55,5.18-7.43,5.18-10a6.43,6.43,0,1,0-12.87,0c0,2.55,3.31,7.43,5.18,10A1.56,1.56,0,0,0,12,18.27ZM9.32,7.53A2.68,2.68,0,1,1,12,10.21,2.68,2.68,0,0,1,9.32,7.53Z"/>
		<path d="M17.06,14.58q-.52.83-1.12,1.73c3.41.51,5.16,1.6,5.16,2.15,0,.72-3.09,2.42-9.1,2.42s-9.1-1.7-9.1-2.42c0-.54,1.75-1.64,5.16-2.15q-.61-.9-1.12-1.73C3.57,15.21,1,16.52,1,18.45c0,2.84,5.53,4.32,11,4.32s11-1.49,11-4.32C23,16.52,20.43,15.21,17.06,14.58Z"/>
	</g>
	<g id="ic_phone" >
		<path d="M18.39,14.63a2.16,2.16,0,0,0-1.57-.72,2.24,2.24,0,0,0-1.59.72l-1.47,1.46-.36-.19c-.17-.08-.33-.16-.46-.25a16,16,0,0,1-3.82-3.48,9.41,9.41,0,0,1-1.25-2c.38-.35.73-.71,1.08-1.06l.39-.39a2.13,2.13,0,0,0,0-3.21L8.07,4.26l-.43-.44c-.28-.29-.57-.59-.87-.86a2.2,2.2,0,0,0-1.56-.68A2.27,2.27,0,0,0,3.63,3h0L2,4.56A3.4,3.4,0,0,0,1,6.72a8.14,8.14,0,0,0,.59,3.45,20,20,0,0,0,3.55,5.92,21.85,21.85,0,0,0,7.28,5.7A11.34,11.34,0,0,0,16.54,23h.29a3.5,3.5,0,0,0,2.68-1.15l0,0a10.56,10.56,0,0,1,.81-.84c.2-.19.4-.39.6-.6a2.32,2.32,0,0,0,.7-1.61,2.23,2.23,0,0,0-.72-1.59ZM20,19.52h0c-.18.2-.37.37-.57.57a12.21,12.21,0,0,0-.9.93,2.24,2.24,0,0,1-1.75.74h-.21A10.07,10.07,0,0,1,13,20.66a20.63,20.63,0,0,1-6.85-5.37A18.85,18.85,0,0,1,2.81,9.72a6.63,6.63,0,0,1-.52-2.91,2.13,2.13,0,0,1,.64-1.38L4.51,3.86a1.06,1.06,0,0,1,.71-.33,1,1,0,0,1,.68.33h0c.28.26.55.54.84.83l.44.45L8.46,6.41a.89.89,0,0,1,0,1.44l-.4.4c-.39.4-.76.77-1.17,1.13l0,0a1,1,0,0,0-.24,1.05v0A10.18,10.18,0,0,0,8.14,13h0a17,17,0,0,0,4.12,3.75,6.34,6.34,0,0,0,.57.31c.17.08.33.16.46.25l.06,0a1,1,0,0,0,.46.12,1,1,0,0,0,.71-.32l1.59-1.59a1.05,1.05,0,0,1,.7-.35,1,1,0,0,1,.67.34h0L20,18.06A.92.92,0,0,1,20,19.52Z"/>
		<path d="M12.89,6.23a6,6,0,0,1,4.87,4.87.62.62,0,0,0,.62.52h.11a.63.63,0,0,0,.52-.72A7.23,7.23,0,0,0,13.11,5a.63.63,0,0,0-.72.51A.62.62,0,0,0,12.89,6.23Z"/>
		<path d="M23,10.7A11.9,11.9,0,0,0,13.28,1a.63.63,0,1,0-.2,1.24,10.63,10.63,0,0,1,8.66,8.66.62.62,0,0,0,.62.52h.11A.62.62,0,0,0,23,10.7Z"/>
	</g>
</svg>
