<?xml version="1.0" encoding="iso-8859-1"?>
<!-- Generator: Adobe Illustrator 18.1.1, SVG Export Plug-In . SVG Version: 6.00 Build 0)  -->
<svg xmlns="http://www.w3.org/2000/svg" xmlns:xlink="http://www.w3.org/1999/xlink" version="1.1" id="Capa_1" x="0px" y="0px" viewBox="0 0 611.999 611.999" style="enable-background:new 0 0 611.999 611.999;" xml:space="preserve" width="512px" height="512px">
<g>
	<g>
		<path d="M608.087,155.117L456.883,3.913c-2.721-2.719-6.485-4.128-10.323-3.885c-3.84,0.254-7.386,2.152-9.726,5.205    L325.363,150.71c-4.075,5.321-3.58,12.834,1.157,17.574l117.193,117.195c2.592,2.592,6.011,3.914,9.451,3.914    c2.85,0,5.71-0.91,8.12-2.757l145.48-111.467c3.053-2.338,4.953-5.884,5.205-9.726    C612.223,161.602,610.806,157.838,608.087,155.117z" fill="#006DF0"/>
		<path d="M292.035,193.383c-4.623-4.625-11.914-5.224-17.229-1.413L34.865,363.897c-3.007,2.156-4.985,5.459-5.465,9.127    L0.113,596.903c-0.54,4.115,0.865,8.247,3.8,11.18c2.522,2.52,5.926,3.914,9.445,3.914c0.575,0,1.155-0.038,1.733-0.114    L238.974,582.6c3.667-0.48,6.971-2.458,9.127-5.465L420.027,337.19c3.808-5.315,3.21-12.604-1.413-17.229L292.035,193.383z     M229.47,437.321c-15.13,15.132-39.658,15.128-54.79-0.004c-15.132-15.128-15.132-39.654-0.002-54.79    c15.13-15.128,39.658-15.124,54.79,0.004C244.599,397.663,244.599,422.189,229.47,437.321z" fill="#006DF0"/>
	</g>
</g>
<g>
</g>
<g>
</g>
<g>
</g>
<g>
</g>
<g>
</g>
<g>
</g>
<g>
</g>
<g>
</g>
<g>
</g>
<g>
</g>
<g>
</g>
<g>
</g>
<g>
</g>
<g>
</g>
<g>
</g>
</svg>
